<svg xmlns="http://www.w3.org/2000/svg" viewBox="0 0 24 24" width="24" height="24">
  <!-- skull -->
  <path d="M8 3C8 3 8 1 12 1s4 2 4 2v4.5c0 2-1.5 3.5-4 3.5s-4-1.5-4-3.5V3z" fill="currentColor"/>
  <rect x="9.5" y="3.5" width="1.5" height="2" rx="0.5" fill="white"/>
  <rect x="13" y="3.5" width="1.5" height="2" rx="0.5" fill="white"/>
  <path d="M10.5 7h3v.6c0 .4-.7.9-1.5.9s-1.5-.5-1.5-.9V7z" fill="white"/>
  <!-- crossed bones -->
  <line x1="5" y1="12" x2="19" y2="22" stroke="currentColor" stroke-width="2" stroke-linecap="round"/>
  <line x1="19" y1="12" x2="5" y2="22" stroke="currentColor" stroke-width="2" stroke-linecap="round"/>
  <circle cx="5" cy="12" r="1.5" fill="currentColor"/>
  <circle cx="19" cy="12" r="1.5" fill="currentColor"/>
  <circle cx="5" cy="22" r="1.5" fill="currentColor"/>
  <circle cx="19" cy="22" r="1.5" fill="currentColor"/>
</svg>
