<svg xmlns="http://www.w3.org/2000/svg" viewBox="0 0 24 24" width="24" height="24">
  <path d="M6 8c0-4 2.7-6 6-6s6 2 6 6v3c0 2.5-1.5 4.5-3.5 5.5V18h-5v-1.5C7.5 15.5 6 13.5 6 11V8z" fill="currentColor"/>
  <rect x="8.5" y="7" width="2.5" height="3" rx="1" fill="white"/>
  <rect x="13" y="7" width="2.5" height="3" rx="1" fill="white"/>
  <path d="M10 13.5h4v1.5c0 .8-.9 1.5-2 1.5s-2-.7-2-1.5z" fill="white"/>
  <rect x="9" y="18" width="2" height="3" fill="currentColor"/>
  <rect x="13" y="18" width="2" height="3" fill="currentColor"/>
</svg>
